<?xml version="1.0" encoding="utf-8"?>
<!-- Generator: Adobe Illustrator 19.2.0, SVG Export Plug-In . SVG Version: 6.00 Build 0)  -->
<svg version="1.1" id="Layer_1" xmlns="http://www.w3.org/2000/svg" xmlns:xlink="http://www.w3.org/1999/xlink" x="0px" y="0px"
	 viewBox="0 0 60 60" style="enable-background:new 0 0 60 60;" xml:space="preserve">
<style type="text/css">
	.st0{fill:#B1005D;}
</style>
<path class="st0" d="M59.9,28.9c-0.2-5-1.6-10-4.2-14.3L38,27.6L59.9,28.9z M55.4,14.3C52.8,10,49.1,6.5,44.7,4l-9,20L55.4,14.3z
	 M56.5,43.7c2.3-4.5,3.5-9.5,3.3-14.5l-21.8,2.6L56.5,43.7z"/>
<path class="st0" d="M44.4,3.8C40,1.4,35.1,0.1,30,0.1L32.1,22L44.4,3.8z"/>
<path class="st0" d="M50.5,51.8c2.2-2.1,4.1-4.5,5.6-7.2c0.1-0.2,0.2-0.4,0.3-0.5l-14-5.8C45.9,42.2,48.6,46.8,50.5,51.8z M4.2,14.9
	l-0.3,0.5C2.4,18.1,1.3,21,0.7,24c5.2-1,10.6-1.1,15.8-0.2L4.2,14.9z M28.7,32.4c-8.6-4.8-18.4-7.1-28.3-6.5
	c-2.3,16.4,9.1,31.5,25.5,33.7c8.3,1.2,16.7-1.2,23.2-6.6C44.4,44.4,37.3,37.2,28.7,32.4z M29.7,0.1c-5,0.1-10,1.4-14.4,3.9l12.6,18
	L29.7,0.1z M15,4.1c-4.4,2.5-8,6.1-10.6,10.5l19.8,9.5L15,4.1z"/>
</svg>
