<?xml version="1.0" encoding="utf-8"?>
<!-- Generator: Adobe Illustrator 19.2.0, SVG Export Plug-In . SVG Version: 6.00 Build 0)  -->
<svg version="1.1" id="Layer_1" xmlns="http://www.w3.org/2000/svg" xmlns:xlink="http://www.w3.org/1999/xlink" x="0px" y="0px"
	 viewBox="0 0 180 180" style="enable-background:new 0 0 180 180;" xml:space="preserve">
<style type="text/css">
	.st0{fill:#FFFFFF;}
	.st1{fill:#FEC931;}
	.st2{fill:#2E2F2C;}
</style>
<rect x="0" class="st0" width="180" height="180"/>
<title>Artboard 1</title>
<path class="st1" d="M76.4,78.5h0.4c4-0.1,7.8-1.7,10.7-4.4l1-1l0.8,0.9c2.5,2.1,6.8,4.5,10.8,4.6h0.4c3.3,0,8.2-1,13.2-6
	c5-5,6-10.3,5.8-13.7c-0.2-3.9-1.8-7.5-4.4-10.4l-1-1l0.9-1c2.9-2.9,4.5-6.8,4.6-10.9c0-3.2-1-8.1-5.8-13.1c-4.8-5-9.8-6.2-13.1-6.3
	c-4.2-0.1-8.3,1.5-11.3,4.4l-1.2,1.2L87.4,21c-3.1-2.8-7.1-4.5-11.3-4.6c-3.3,0.1-8.3,1.2-13.1,6.3s-5.8,9.8-5.8,13
	c0,3.9,1.5,7.7,4.2,10.5l1.3,1.3l-1,0.9c-2.6,2.8-4.2,6.5-4.4,10.3c-0.1,5.1,1.8,9.7,5.8,13.7C68.2,77.5,73.1,78.5,76.4,78.5z
	 M68.8,28.2c2.3-2.4,4.8-3.7,7.4-3.7c2.9,0.2,5.4,2,6.6,2.9l-1.2,1.2l-3.8,3.8l-0.2,0.2l-4.9,4.8l-3.3,3.4c1.3,1.3,3.6,3.7,5.6,5.7
	c2.9-2.9,15.5-15.5,20.1-20c1.5-1.4,3.5-2.1,5.5-2.1c2.5,0,4.9,1.3,7.3,3.7s3.8,5.2,3.7,7.8c-0.1,2-0.9,3.8-2.4,5.1l-0.9,0.9
	l-0.9-0.9L95.2,28.8l-5.7,5.7l19.8,19.7c0.2,0.2,0.4,0.4,0.6,0.6c0.9,1.3,1.4,2.8,1.5,4.4c0.1,2.7-1.1,5.3-3.5,7.7
	c-2.4,2.4-5,3.7-7.5,3.7h-0.2c-1.8-0.2-3.6-1-5-2.2l-1.1-0.9l1.1-1c4.2-4.2,10.4-10.3,12.1-12l-5.7-5.8C95.3,55,86.8,63.4,81.8,68.3
	c-1.4,1.3-3.3,2.1-5.2,2.2h-0.2c-2.6,0-5.1-1.2-7.5-3.7s-3.5-4.9-3.5-7.7c0.1-1.8,0.8-3.6,2-5l1-1l1,1c3.1,3.1,8.6,8.6,12.2,12.2
	l5.7-5.7c-7.2-7.2-15.7-15.7-20-20.1c-1.3-1.3-1.9-3.1-1.9-4.9C65.2,33.2,66.5,30.6,68.8,28.2z"/>
<path class="st2" d="M36,104.6v11.5h-3.2v-11.5h-4v-2.8H40v2.8L36,104.6z"/>
<path class="st2" d="M58.6,110.1l2.5-8.2h3.3l2.5,8.2l2.8-8.2h3.4l-5,14.3h-2.3l-3.1-9.9l-3.1,9.9h-2.4l-5-14.3h3.5L58.6,110.1z"/>
<path class="st2" d="M86.8,101.9H90v14.3h-3.2V101.9z"/>
<path class="st2" d="M115.4,101.9h3.2v14.3h-3.2l-6.8-8.9v8.9h-3.2v-14.3h3l7,9.2L115.4,101.9z"/>
<path class="st2" d="M144.2,101.9v2.8h-7.1v2.9h6.4v2.7h-6.4v3h7.3v2.8h-10.6v-14.3H144.2z"/>
<path class="st2" d="M151.2,103.3c0,0.8-0.6,1.5-1.4,1.5c-0.8,0-1.5-0.6-1.5-1.4c0-0.8,0.6-1.5,1.4-1.5c0,0,0,0,0,0
	C150.6,101.8,151.2,102.5,151.2,103.3C151.2,103.3,151.2,103.3,151.2,103.3z M148.7,103.3c0,0.6,0.5,1.1,1.1,1.1c0,0,0,0,0,0
	c0.6,0,1.1-0.5,1.1-1.1c0,0,0,0,0,0c0-0.6-0.5-1.1-1.1-1.1S148.7,102.7,148.7,103.3L148.7,103.3z M149.5,104h-0.3v-1.5
	c0.2,0,0.4,0,0.6,0c0.2,0,0.3,0,0.5,0.1c0.1,0.1,0.1,0.2,0.1,0.3c0,0.2-0.1,0.3-0.3,0.3l0,0c0.1,0.1,0.2,0.2,0.3,0.3
	c0,0.1,0.1,0.2,0.1,0.4h-0.4c-0.1-0.1-0.1-0.2-0.1-0.3c0-0.2-0.1-0.2-0.3-0.2h-0.2L149.5,104z M149.5,103.2h0.2
	c0.2,0,0.3-0.1,0.3-0.2s-0.1-0.2-0.3-0.2h-0.2L149.5,103.2z"/>
<path class="st2" d="M123,150.2c0,0.8-0.6,1.5-1.4,1.5c-0.8,0-1.5-0.6-1.5-1.4c0-0.8,0.6-1.5,1.4-1.5c0,0,0,0,0,0
	C122.3,148.8,122.9,149.4,123,150.2C123,150.2,123,150.2,123,150.2z M120.4,150.2c0,0.6,0.5,1.1,1.1,1.1c0,0,0,0,0,0
	c0.6,0,1.1-0.5,1.1-1.1c0,0,0,0,0,0c0-0.6-0.5-1.1-1.1-1.1S120.4,149.6,120.4,150.2L120.4,150.2z M121.3,151h-0.3v-1.4
	c0.2,0,0.4,0,0.6,0c0.2,0,0.3,0,0.5,0.1c0.1,0.1,0.1,0.2,0.1,0.3c0,0.2-0.1,0.3-0.3,0.3l0,0c0.1,0.1,0.2,0.2,0.3,0.4
	c0,0.1,0.1,0.2,0.1,0.4h-0.4c-0.1-0.1-0.1-0.2-0.1-0.4c0-0.2-0.1-0.2-0.3-0.2h-0.2L121.3,151z M121.3,150.2h0.2
	c0.2,0,0.3-0.1,0.3-0.2s-0.1-0.2-0.3-0.2h-0.2L121.3,150.2z"/>
<path class="st2" d="M47.4,160.9c0.8-2.9,2.5-5.4,4.8-7.4c2.3-2.1,4.9-3.7,7.8-4.9c0.4-0.1,0.7-0.4,0.9-0.7c1.6-2.8,3.6-5.3,5.8-7.6
	c0.1,0,0.1-0.1,0.2-0.1c-1.6,0.6-3.3,0.4-4.7-0.4c0.1,1.1-0.3,2.2-1,3.1c-0.5,0.6-1.1,1.1-1.8,1.3l0.3-0.2c1-0.7,1.7-1.7,2.1-2.9
	c0.1-0.3,0.1-0.7,0.1-1c0.1-0.4-0.1-0.7-0.4-0.9c-0.1-0.1-0.2-0.3-0.2-0.5c0-0.2,0.2-0.3,0.3-0.2c0.1,0.1,0.1,0.1,0.2,0.2
	c0.4,0.8,1.2,1.3,2,1.4c1.5,0.3,3-0.1,4.2-1c0.1-0.1,0.2-0.1,0.3-0.2c-2.4,2.7-4.4,5.7-5.9,8.9c0.4-0.1,0.7-0.2,1.1-0.3
	c0.6-0.1,1.3-0.2,1.9-0.3c0.4-0.1,0.9,0.2,1.1,0.5c0.2,0.4,0.4,0.4,0.8,0.2c0.4-0.3,0.9-0.6,1.2-0.9c0.9-0.9,1.6-1.9,2.2-3
	c0.6-1.1,1.4-2,2.3-2.8c0.5-0.4,1-0.7,1.5-1c0.2-0.1,0.3-0.1,0.5-0.1c0.2,0,0.4,0.2,0.4,0.4c0,0.1,0,0.1,0,0.2
	c-0.1,0.3-0.3,0.6-0.5,0.8c-0.7,0.8-1.6,1.6-2.5,2.2c-0.4,0.3-0.7,0.7-1,1.1l-1.7,2.9c0.2-0.1,0.4-0.1,0.5-0.2
	c0.4-0.1,0.7-0.2,1.1-0.2c0.4,0,0.7,0.3,0.6,0.7c-0.1,0.3-0.2,0.5-0.3,0.8c-0.2,0.5-0.5,0.9-0.8,1.4c-0.1,0.1-0.1,0.1-0.1,0.2
	c0,0.1,0,0.2,0,0.3c0.1,0,0.2,0,0.3-0.1c0.2-0.2,0.4-0.4,0.5-0.6c0.6-0.7,1.1-1.5,1.7-2.2c0.3-0.4,0.8-0.6,1.2-0.6
	c0.4,0.1,0.6,0.2,0.6,0.6v0.3c0.3-0.2,0.5-0.4,0.8-0.5c0.3-0.2,0.7-0.3,1-0.4c0.3-0.1,0.7,0.1,0.8,0.4c0.1,0.2,0,0.3,0,0.5
	c-0.1,0.2-0.2,0.4-0.3,0.6c-0.3,0.5-0.6,0.9-0.9,1.4c-0.1,0.1-0.1,0.2-0.1,0.3c0,0.2-0.1,0.4,0,0.5c0.1,0.1,0.3,0.1,0.5,0.1
	c0.4-0.1,0.7-0.3,1.1-0.5l-0.4-0.6l0.1-0.1l0.6,0.4c0.4-0.4,0.9-0.7,1.3-1.1c0.8-0.8,1.5-1.6,2.3-2.3c0.2-0.2,0.2-0.4,0.1-0.6
	c-0.4-0.9-0.3-1.9,0.1-2.8c0.4-1,1.4-1.7,2.5-1.7c0.2,0,0.3-0.1,0.4-0.3c0.1-0.2,0.2-0.7,0.3-1c0.2-0.7,0.2-1.4,0.1-2.1
	c-0.1-0.2-0.1-0.5,0.2-0.5s0.3,0.2,0.4,0.4c0,0.2,0,0.3,0.1,0.4c0.2,0.8,0.7,1.1,1.9,1.1c0.6-0.1,1.2-0.3,1.7-0.6
	c0.4-0.3,0.8-0.6,1.2-0.8c0.4-0.3,1-0.6,1.5-0.9h0.1c0,0.1-0.1,0.1-0.1,0.2c-1.5,1.4-2.8,3-3.7,4.8c-0.2,0.3-0.5,0.6-0.5,1
	c0,0.4,0.3,0.7,0.4,1c0.2,0.6,0.3,1.2,0.5,1.8l0.2-0.3c1-1.7,2.2-3.3,3.6-4.8c1-1,2.1-1.9,3.4-2.5c0.1-0.1,0.2-0.1,0.3-0.1
	c0,0,0,0.1-0.1,0.1c-1.3,1.1-2.4,2.3-3.3,3.8c-1.3,2-2.5,4.1-3.7,6.2c0,0.1,0,0.1-0.1,0.2c0.3-0.1,0.6-0.2,0.8-0.4l1.6-0.8
	c0.2-0.1,0.5-0.3,0.8-0.4c0.6-0.4,1.4-0.2,1.8,0.3c0.3-0.6,0.8-0.3,1.3-0.4l-0.4,0.6l-1.2,2.1v0.1c-0.1,0.2-0.3,0.5,0,0.7
	c0.3,0.2,0.4-0.1,0.6-0.3c0.5-0.6,0.9-1.1,1.4-1.7c0.3-0.4,0.7-0.8,1.1-1.2c0.2-0.2,0.5-0.3,0.7-0.3c0.4-0.1,0.8,0.1,0.9,0.5
	c0,0.1,0,0.1,0,0.2c0.3-0.2,0.7-0.4,1-0.5c0.3-0.1,0.6-0.1,0.9-0.1c0.4,0.1,0.7,0.5,0.6,0.9c0,0,0,0.1,0,0.1
	c-0.1,0.2-0.2,0.4-0.3,0.6c-0.2,0.4-0.5,0.8-0.7,1.1c-0.1,0.1-0.1,0.2-0.2,0.3c0,0.2,0,0.3,0,0.5c0.2,0,0.4,0,0.5-0.1
	c0.4-0.3,0.8-0.6,1.1-1c0.4-0.5,0.8-1.1,1.2-1.6c0.4-0.5,1-0.9,1.6-1c0.3,0,0.7,0,1,0.1c0.1,0,0.3,0.1,0.3,0.2
	c0.2,0.1,0.2,0.4,0,0.5c0,0,0,0,0,0c-0.2,0.2-0.5,0.1-0.6-0.1c0,0,0,0,0,0c-0.3-0.4-0.6-0.4-0.9,0c-0.5,0.6-0.9,1.3-1.3,2
	c-0.1,0.1-0.1,0.2-0.1,0.4c-0.1,0.3,0.1,0.5,0.4,0.6c0.1,0,0.2,0,0.3,0c0.4-0.1,0.7-0.3,1-0.5c0.5-0.5,1-1,1.5-1.5
	c0.4-0.4,0.9-0.9,1.4-1.3c0.4-0.3,0.9-0.4,1.4-0.4c0.4,0,0.8,0.3,1,0.7c0.2,0.5,0.4,0.5,0.9,0.3c0.5-0.3,0.7-0.4,1.1-0.6
	c0.6-0.3,1.2-0.4,1.8-0.3c0.3,0.1,0.5,0.3,0.6,0.5c0.1,0.2,0,0.4-0.2,0.5c0,0,0,0,0,0c-0.2,0.1-0.3,0-0.4-0.2
	c-0.1-0.2-0.4-0.4-0.7-0.2c-0.2,0.2-0.4,0.4-0.6,0.6c-0.3,0.5-0.6,0.9-0.8,1.4c-0.1,0.2-0.1,0.4-0.1,0.6c0,0.2,0.1,0.4,0.3,0.5
	c0.1,0,0.2,0,0.2,0c0.3-0.1,0.6-0.2,0.8-0.4c0.9-0.6,1.6-1.3,2.2-2.1c0.9-1.2,1.8-2.5,2.7-3.9c1-1.4,2.1-2.8,3.4-3.9
	c0.4-0.4,0.8-0.6,1.4-0.7c0.2,0,0.4,0,0.6,0.1c0.2,0.2,0.1,0.4,0,0.6c-0.3,0.6-0.7,1.1-1.3,1.5c-0.6,0.5-1.3,0.9-1.9,1.4
	c-0.2,0.1-0.4,0.3-0.6,0.6c-0.7,1.1-1.3,2.1-1.9,3.2c-0.1,0.1-0.1,0.3-0.1,0.4c0.6-0.4,1.3-0.7,2-0.8c0.3-0.1,0.7,0.1,0.8,0.4
	c0.2,0.3,0.1,0.7-0.1,1c-0.4,0.6-1,0.9-1.7,1.1c-0.5,0.1-1,0.2-1.5,0.3c0,0,0,0.1,0,0.1c1.1,0.8,2,1.9,2.7,3.1
	c0.3,0.5,0.8,0.8,1.3,0.9c1.5,0.2,2.8,0.8,4,1.7c0.3,0.3,0.6,0.6,0.8,1c0.4,0.5,0.3,1.2-0.2,1.5c-0.2,0.2-0.5,0.2-0.8,0.2
	c-1.1,0.1-2.2-0.3-3-0.9c-1-0.8-1.8-1.7-2.4-2.8c-0.1-0.2-0.4-0.4-0.6-0.4c-2.7-0.3-5.4-0.4-8.2-0.3c-1.8,0.1-3.6,0.2-5.4,0.4h-0.4
	c0.5-0.3,2.8-0.7,6.9-1c2.4-0.2,4.7-0.1,7.1,0.2c-0.6-1.3-1.5-2.5-2.4-3.6c-0.3,0.4-0.5,0.8-0.7,1.2c-0.1,0.2-0.2,0.2-0.4,0.2
	c-0.4,0-0.8,0-1.2,0l1.4-2.5H115c-0.3,0.3-0.6,0.7-0.9,0.9c-0.5,0.5-1.1,0.9-1.7,1.3c-0.3,0.2-0.6,0.3-1,0.3
	c-0.6,0.1-1.1-0.3-1.2-0.9c0-0.1,0-0.3,0-0.4c0.1-0.4,0.1-0.7,0.2-1.1c0-0.1,0.1-0.2,0.1-0.4c-0.3,0.1-0.6,0.1-0.8,0.2
	c-0.1,0-0.1,0.2-0.2,0.2c-0.2,0.6-0.6,1.2-1.1,1.7c-0.4,0.3-0.8,0.6-1.3,0.6c-0.6,0.1-1.3-0.3-1.4-0.9c0-0.2,0-0.4,0-0.6
	c0-0.1,0-0.3,0-0.4l-0.2,0.2c-0.5,0.4-0.9,0.9-1.4,1.2c-0.4,0.4-1,0.5-1.6,0.3c-0.6-0.1-0.9-0.7-0.8-1.3c-0.1,0.1-0.1,0.2-0.2,0.2
	c-0.4,0.4-0.9,0.8-1.4,1c-0.3,0.2-0.7,0.2-1.1,0c-0.3-0.1-0.5-0.4-0.4-0.7c0,0,0,0,0,0c0.1-0.4,0.3-0.8,0.5-1.1
	c0.2-0.4,0.4-0.7,0.6-1c0.2-0.3,0-0.4-0.2-0.4c-0.3,0.1-0.6,0.2-0.8,0.4c-0.3,0.3-0.5,0.6-0.7,1c-0.3,0.6-0.7,1.2-1,1.8
	c-0.1,0.1-0.2,0.2-0.3,0.2c-0.4,0-0.7,0-1.1,0l0.2-0.3l1.4-2.5c0-0.1,0.1-0.1,0.1-0.2c0-0.1,0-0.2,0-0.4c-0.1,0-0.2,0-0.3,0.1
	c-0.1,0.1-0.1,0.1-0.2,0.2c-0.5,0.6-1,1.3-1.5,2c-0.2,0.3-0.5,0.5-0.7,0.8c-0.2,0.1-0.3,0.3-0.5,0.3c-0.4,0.3-0.9,0.2-1.2-0.2
	c-0.1-0.1-0.1-0.2-0.1-0.3c-0.2,0.1-0.4,0.3-0.7,0.4c-0.3,0.2-0.8,0.3-1.2,0.2c-0.4-0.1-0.7-0.4-0.7-0.9c0-0.5,0.1-1,0.4-1.4
	l0.2-0.3c-0.5,0.2-1,0.3-1.5,0.5c-0.1,0-0.2,0.1-0.2,0.2c-0.3,0.6-0.7,1.1-1,1.7c-0.1,0.1-0.2,0.2-0.4,0.2c-0.4,0-0.8,0-1.3,0l1-1.9
	l-2-0.4l-0.2,0.4c-0.7,1.1-1.9,1.9-3.2,2.1c-0.9,0.1-1.9-0.1-2.7-0.6c-0.4-0.3-1-0.3-1.4,0c-0.5,0.2-1,0.4-1.5,0.4
	c-0.8,0.1-1.2-0.4-0.8-1.2c0.3-0.5,0.6-1,1-1.6c0.1-0.2,0.3-0.4,0.1-0.6c-0.2-0.2-0.5-0.2-0.7,0c0,0,0,0,0,0
	c-0.3,0.3-0.6,0.6-0.9,0.9c-0.5,0.7-0.9,1.4-1.4,2.1c-0.1,0.1-0.2,0.2-0.4,0.2c-0.3,0-0.6,0-1,0l0.5-0.8l1.2-2.1
	c0-0.1,0.1-0.1,0.1-0.2c0-0.1,0-0.3,0-0.4c-0.1,0-0.3,0-0.4,0.1c-0.1,0.1-0.3,0.2-0.4,0.4l-1.7,2.2c-0.3,0.4-0.6,0.7-1.1,0.8
	c-0.3,0.1-0.7,0.1-0.9-0.2c-0.2-0.3-0.3-0.6-0.1-0.9c0.3-0.6,0.6-1.1,0.9-1.7c0.1-0.2,0.2-0.4,0.1-0.6s-0.4,0-0.6,0.1
	c-0.6,0.4-1.1,0.9-1.4,1.5c-0.3,0.5-0.6,1-0.9,1.5c-0.1,0.2-0.2,0.3-0.4,0.2c-0.3,0-0.6,0-1,0l2.3-3.9v-0.1
	c-0.5,0.5-1.1,0.8-1.7,0.9l-0.1,0.4c-0.3,1-0.9,1.8-1.8,2.3c-0.3,0.2-0.6,0.3-0.9,0.3c-0.6,0.1-1.3-0.3-1.4-0.9c0-0.2,0-0.4,0-0.6
	c0.1-0.5,0.4-1,0.7-1.5l0.4-0.5h-0.1c-0.4,0-0.9,0.1-1.3,0.3c-0.3,0.2-0.4,0.7-0.6,1.1c-1.2,2.4-2.3,4.8-3.6,7.1
	c-1.1,2.1-2.7,3.8-4.6,5.1c-1,0.7-2.1,1.2-3.3,1.3c-0.4,0.1-0.9,0.1-1.3,0c-0.7-0.1-1.3-0.6-1.4-1.3L47.4,160.9z M60.3,148.9L60,149
	c-2.9,1.3-5.6,3.1-7.8,5.4c-1.4,1.4-2.7,3.1-3.6,4.9c-0.3,0.5-0.5,1.1-0.6,1.6c-0.3,0.6,0,1.3,0.7,1.6c0.1,0,0.2,0.1,0.3,0.1
	c0.2,0,0.3,0,0.5,0c0.9-0.1,1.8-0.5,2.5-1.1c1.3-1.1,2.4-2.3,3.3-3.8c1.5-2.5,2.9-5,4.3-7.5C59.8,149.7,60,149.3,60.3,148.9
	L60.3,148.9z M83.9,147.9l2.9-5.1c-0.4-0.4-0.9-0.6-1.5-0.7c-0.1,0-0.2,0.1-0.2,0.1c-0.6,1.5-1.4,2.9-2.4,4.1c0,0.1,0,0.2,0,0.3
	C83.1,147.2,83.5,147.6,83.9,147.9L83.9,147.9z M78.8,150.4c1,0.6,2.2,0.6,3.2,0c0.7-0.6,1.3-1.3,1.7-2.1l-1.3-1.4
	C81.3,148.3,80.1,149.5,78.8,150.4L78.8,150.4z M85.3,148.8c0.6,0.1,1.2,0.3,1.8,0.4c0.1,0,0.2-0.1,0.3-0.2c0.6-0.9,0.9-2,0.9-3.1
	c0-0.7-0.2-1.4-0.5-2L85.3,148.8z M120.4,154.7c0,0.1,0.1,0.1,0.1,0.2c0.7,1,1.6,1.8,2.6,2.6c0.2,0.2,0.5,0.3,0.8,0.4
	c0.3,0.1,0.5,0.2,0.8,0.2c0.4,0,0.7-0.2,0.7-0.6c0-0.1,0-0.3-0.1-0.4c-0.2-0.3-0.4-0.6-0.6-0.8C123.5,155.3,122,154.8,120.4,154.7z
	 M87.1,142.4l2-2.5c-1.1,0.4-2.2,0.6-3.1-0.3l-0.5,2.1L87.1,142.4z M109,148.2c0.1-0.5-0.2-0.6-0.6-0.4l-0.2,0.1
	c-0.5,0.4-1,1-1.3,1.6c-0.1,0.3-0.2,0.5-0.2,0.8c0,0.2,0.1,0.4,0.2,0.6c0.2,0.2,0.5,0,0.7-0.1c0.7-0.5,1.2-1.2,1.5-2
	c0-0.1,0-0.2,0-0.4C109.1,148.4,109,148.3,109,148.2L109,148.2z M63.6,150.4c0,0.5,0.3,0.7,0.8,0.5c0.1-0.1,0.2-0.1,0.3-0.2
	c0.6-0.5,1-1.1,1.3-1.8c0.1-0.2,0.2-0.4-0.1-0.6c0,0,0-0.1,0-0.2c0-0.4-0.2-0.5-0.6-0.3c-0.1,0.1-0.2,0.1-0.3,0.2
	c-0.6,0.5-1,1.1-1.3,1.9C63.7,150,63.7,150.2,63.6,150.4L63.6,150.4z M84.9,142.1c-0.8,0-1.6,0.4-2,1.1c-0.6,0.9-0.7,2-0.3,3
	C83.6,145,84.3,143.6,84.9,142.1L84.9,142.1z M93.8,148c0-0.4-0.1-0.6-0.4-0.5c-0.3,0.1-0.5,0.2-0.8,0.4c-0.6,0.6-1,1.3-1.4,2
	c-0.1,0.2-0.1,0.3-0.1,0.5c0,0.4,0.3,0.6,0.6,0.4c0.3-0.1,0.5-0.3,0.7-0.5c0.4-0.6,0.8-1.2,1.2-1.8C93.7,148.3,93.7,148.2,93.8,148
	L93.8,148z M116.1,149.7c0.2,0,0.4-0.1,0.6-0.1c0.7-0.1,1.3-0.4,1.7-0.9c0.2-0.2,0.4-0.5,0.2-0.8c-0.2-0.3-0.5-0.1-0.8,0
	C117,148.3,116.4,148.9,116.1,149.7z M72.2,143.3L72.2,143.3c1-0.6,1.8-1.3,2.5-2.2c0.2-0.2,0.4-0.4,0.2-0.6c-0.2-0.2-0.5,0-0.6,0.2
	c-0.5,0.6-1,1.1-1.5,1.7C72.6,142.7,72.4,143,72.2,143.3z M120,143.1c0.9-0.5,1.6-1.1,2.3-1.8c0.1-0.1,0.2-0.3,0.3-0.4
	c0-0.1,0-0.2,0-0.4c-0.1,0-0.3,0-0.4,0c-0.2,0.1-0.4,0.3-0.6,0.5C120.9,141.6,120.4,142.3,120,143.1L120,143.1z"/>
</svg>
