<svg id="Layer_1" data-name="Layer 1" xmlns="http://www.w3.org/2000/svg" viewBox="0 0 123.51 147.88"><defs><style>.cls-1{fill:#fec931;}.cls-2{fill:#2e2f2c;}</style></defs><title>Artboard 1</title><path class="cls-1" d="M48.17,62.82h.35a15.94,15.94,0,0,0,10.66-4.43l1-1,.85.89c2.48,2.08,6.78,4.54,10.79,4.62h.35c3.29,0,8.25-1,13.23-6s6-10.26,5.83-13.72a16.6,16.6,0,0,0-4.4-10.36l-1-1,.94-.95a15.88,15.88,0,0,0,4.62-10.9c0-3.2-1-8.06-5.76-13.09S75.85.66,72.54.6A15.75,15.75,0,0,0,61.25,5L60.09,6.18l-.94-.89A17.46,17.46,0,0,0,47.81.71C44.48.79,39.51,1.93,34.75,7S29,16.85,29,20A15.19,15.19,0,0,0,33.2,30.52l1.27,1.3-1,.94a16.32,16.32,0,0,0-4.36,10.3c-.15,5.1,1.81,9.72,5.83,13.73C39.92,61.77,44.88,62.82,48.17,62.82ZM40.58,12.48c2.31-2.44,4.78-3.7,7.35-3.74,2.91.18,5.36,2,6.64,2.91l-1.19,1.19-3.8,3.78-.17.17-4.87,4.84L41.21,25c1.3,1.33,3.64,3.71,5.63,5.72C49.73,27.8,62.37,15.22,66.9,10.75a7.88,7.88,0,0,1,5.51-2.11c2.47,0,4.87,1.26,7.32,3.71s3.75,5.2,3.7,7.76A7,7,0,0,1,81,25.22l-.94.86-.9-.9L67,13.07l-5.7,5.66L81.1,38.45a6.51,6.51,0,0,1,.62.63,8.23,8.23,0,0,1,1.48,4.44c.11,2.69-1.06,5.28-3.48,7.7s-5,3.67-7.54,3.67H72a9.76,9.76,0,0,1-5-2.15l-1.15-.94,1.06-1c4.19-4.17,10.37-10.33,12.06-12L73.31,33C67.1,39.26,58.57,47.74,53.56,52.63a7.89,7.89,0,0,1-5.22,2.15h-.18c-2.57,0-5.1-1.23-7.54-3.67s-3.53-4.86-3.48-7.67a8.08,8.08,0,0,1,2-4.95l.95-1,1,1c3.07,3.09,8.58,8.59,12.19,12.18L58.94,45c-7.25-7.2-15.7-15.69-20-20.1A7.08,7.08,0,0,1,37,20C37,17.55,38.25,14.94,40.58,12.48Z"/><path class="cls-2" d="M7.73,88.92v11.52H4.54V88.92H.5V86.16H11.77v2.76Z"/><path class="cls-2" d="M30.39,94.37l2.53-8.21h3.33l2.51,8.21,2.84-8.21h3.45l-5,14.27H37.7l-3.12-9.92-3.1,9.92H29.11l-5-14.27h3.45Z"/><path class="cls-2" d="M58.59,86.16h3.19v14.27H58.59Z"/><path class="cls-2" d="M87.12,86.16H90.3v14.27H87.12l-6.8-8.94v8.94H77.13V86.16h3l7,9.19Z"/><path class="cls-2" d="M116,86.16V89h-7.11v2.94h6.39v2.72h-6.39v3h7.33v2.82H105.66V86.16Z"/><path class="cls-2" d="M123,87.58a1.48,1.48,0,1,1-1.48-1.44A1.45,1.45,0,0,1,123,87.58Zm-2.59,0a1.12,1.12,0,0,0,1.12,1.15,1.1,1.1,0,0,0,1.1-1.14,1.11,1.11,0,1,0-2.22,0Zm.89.76H121V86.89a2.91,2.91,0,0,1,.55,0,.9.9,0,0,1,.5.11.4.4,0,0,1,.14.32.37.37,0,0,1-.3.33v0a.43.43,0,0,1,.26.35,1.11,1.11,0,0,0,.11.36h-.36a1.24,1.24,0,0,1-.11-.35c0-.16-.11-.23-.3-.23h-.16Zm0-.82h.16c.18,0,.33-.06.33-.21s-.1-.22-.31-.22l-.18,0Z"/><path class="cls-2" d="M94.72,134.54a1.48,1.48,0,1,1-1.48-1.44A1.45,1.45,0,0,1,94.72,134.54Zm-2.59,0a1.12,1.12,0,0,0,1.12,1.15,1.1,1.1,0,0,0,1.1-1.14,1.11,1.11,0,1,0-2.22,0Zm.89.76h-.33v-1.44a2.91,2.91,0,0,1,.55,0,.9.9,0,0,1,.5.11.4.4,0,0,1,.14.32.37.37,0,0,1-.3.33v0a.43.43,0,0,1,.26.35,1.11,1.11,0,0,0,.11.36h-.36a1.24,1.24,0,0,1-.11-.35c0-.16-.11-.23-.3-.23H93Zm0-.82h.16c.18,0,.33-.06.33-.21s-.1-.22-.31-.22l-.18,0Z"/><path class="cls-2" d="M19.18,145.16a14.91,14.91,0,0,1,4.75-7.37,25.64,25.64,0,0,1,7.8-4.86,1.63,1.63,0,0,0,.86-.74,35.41,35.41,0,0,1,5.85-7.59c.05,0,.12-.08.16-.15a5.73,5.73,0,0,1-4.72-.37,4.11,4.11,0,0,1-1,3.1,4,4,0,0,1-1.82,1.35l.28-.24a6,6,0,0,0,2.07-2.86,4.54,4.54,0,0,0,.14-1,1,1,0,0,0-.39-.95.82.82,0,0,1-.24-.5c0-.22.16-.3.34-.17a.57.57,0,0,1,.18.2,2.6,2.6,0,0,0,2,1.36,5.16,5.16,0,0,0,4.22-1,1,1,0,0,1,.34-.18,36.05,36.05,0,0,0-5.92,8.95c.41-.11.73-.22,1.06-.29.63-.13,1.26-.25,1.89-.33a1.14,1.14,0,0,1,1.1.53c.25.35.44.42.8.19a7.61,7.61,0,0,0,1.23-.95,14.42,14.42,0,0,0,2.23-3,10.91,10.91,0,0,1,2.27-2.83,16.27,16.27,0,0,1,1.47-1,.91.91,0,0,1,.52-.12.42.42,0,0,1,.41.6,2.79,2.79,0,0,1-.47.81A14,14,0,0,1,44.08,128a3.6,3.6,0,0,0-1,1.1L41.38,132c.21-.07.36-.14.52-.17a7.45,7.45,0,0,1,1.13-.22c.44,0,.66.26.56.69a3.37,3.37,0,0,1-.29.8c-.24.47-.52.92-.78,1.38a.59.59,0,0,0-.11.21,1.62,1.62,0,0,0,0,.34c.1,0,.23,0,.3-.08a4.9,4.9,0,0,0,.52-.56c.58-.73,1.14-1.47,1.73-2.19a1.37,1.37,0,0,1,1.25-.59c.44.05.58.19.64.64l0,.26a7.73,7.73,0,0,1,.79-.51,4.66,4.66,0,0,1,1-.39.66.66,0,0,1,.83.87,2.4,2.4,0,0,1-.27.61c-.28.47-.58.94-.87,1.4a.75.75,0,0,0-.14.27c0,.17-.06.39,0,.51a.51.51,0,0,0,.47.09c.37-.13.72-.31,1.08-.48l-.41-.61.09-.09.63.45c.45-.37.93-.73,1.35-1.14.78-.76,1.53-1.56,2.3-2.33a.5.5,0,0,0,.11-.62,3.47,3.47,0,0,1,.08-2.77,2.75,2.75,0,0,1,2.51-1.71c.21,0,.31-.07.36-.27s.21-.66.31-1a3.66,3.66,0,0,0,.07-2.05c-.05-.19-.12-.46.15-.51s.33.21.37.43,0,.29.06.42c.19.83.66,1.14,1.87,1.09a3.44,3.44,0,0,0,1.68-.61c.42-.27.82-.57,1.24-.84s1-.61,1.48-.91h.06a.66.66,0,0,1-.11.2,17.1,17.1,0,0,0-3.72,4.75c-.19.33-.5.64-.53,1s.27.66.38,1c.19.58.34,1.18.5,1.78l.19-.29a27.64,27.64,0,0,1,3.62-4.77A12.49,12.49,0,0,1,67.77,123a.66.66,0,0,1,.35-.08.5.5,0,0,1-.08.12,14.17,14.17,0,0,0-3.3,3.8c-1.29,2-2.49,4.14-3.73,6.22a1.48,1.48,0,0,0-.06.17c.31-.14.58-.24.82-.37l1.57-.83c.25-.13.51-.26.78-.36a1.43,1.43,0,0,1,1.83.29c.28-.64.81-.3,1.3-.41l-.35.65-1.2,2.13,0,.05c-.12.22-.27.49,0,.66s.44-.09.58-.26c.46-.56.89-1.14,1.36-1.7a12.21,12.21,0,0,1,1.11-1.21,1.62,1.62,0,0,1,.74-.32.73.73,0,0,1,.95.68,7.57,7.57,0,0,1,1-.52,1.81,1.81,0,0,1,.88-.09.76.76,0,0,1,.56,1,2.9,2.9,0,0,1-.27.61c-.22.38-.46.75-.68,1.12a.92.92,0,0,0-.16.33,2.57,2.57,0,0,0,0,.49c.16,0,.37,0,.47-.07a8.72,8.72,0,0,0,1.09-1c.42-.49.77-1.05,1.19-1.55a2.51,2.51,0,0,1,1.63-1,4.15,4.15,0,0,1,1,.06.72.72,0,0,1,.35.23.37.37,0,0,1,0,.57.44.44,0,0,1-.62-.07c-.3-.41-.58-.45-.88,0-.47.65-.88,1.34-1.31,2a.87.87,0,0,0-.1.35.51.51,0,0,0,.63.61,2.7,2.7,0,0,0,1-.53c.53-.47,1-1,1.51-1.52a18.24,18.24,0,0,1,1.4-1.27,2.09,2.09,0,0,1,1.45-.39,1.08,1.08,0,0,1,1,.69c.22.49.36.54.85.28s.74-.43,1.11-.64a2.43,2.43,0,0,1,1.83-.27.72.72,0,0,1,.57.54.37.37,0,0,1-.25.49c-.23.09-.35,0-.45-.23s-.37-.42-.67-.19a2.47,2.47,0,0,0-.58.58,15.43,15.43,0,0,0-.82,1.4,1.47,1.47,0,0,0-.14.62.41.41,0,0,0,.55.46,3,3,0,0,0,.8-.36,8.34,8.34,0,0,0,2.21-2.1Q88,131,89.3,129a20.71,20.71,0,0,1,3.39-3.93,2.66,2.66,0,0,1,1.36-.72.91.91,0,0,1,.62.12c.21.15.09.41,0,.62a4.19,4.19,0,0,1-1.27,1.51c-.61.5-1.28.91-1.91,1.38a2.21,2.21,0,0,0-.58.56c-.66,1.06-1.28,2.13-1.92,3.2a.9.9,0,0,0-.13.41,5.7,5.7,0,0,1,2-.79.74.74,0,0,1,.85.41,1,1,0,0,1-.08,1,2.9,2.9,0,0,1-1.72,1.09c-.5.13-1,.22-1.52.33,0,0,0,.05,0,.06a9.34,9.34,0,0,1,2.7,3.09,1.73,1.73,0,0,0,1.32.9,8.84,8.84,0,0,1,4,1.71,3.41,3.41,0,0,1,.83,1,1.09,1.09,0,0,1-1,1.74,4.28,4.28,0,0,1-3-.94,10.18,10.18,0,0,1-2.44-2.8.79.79,0,0,0-.64-.38A54.42,54.42,0,0,0,82,138.3c-1.81.06-3.62.23-5.44.35l-.42,0c.46-.33,2.79-.68,6.94-1a39.41,39.41,0,0,1,7.09.18,13.79,13.79,0,0,0-2.45-3.55c-.26.44-.49.81-.7,1.2a.37.37,0,0,1-.39.22c-.37,0-.75,0-1.18,0l1.37-2.5-.06,0c-.3.32-.58.66-.9.94a16.94,16.94,0,0,1-1.65,1.3,2.19,2.19,0,0,1-1,.31,1.05,1.05,0,0,1-1.2-1.25,10.08,10.08,0,0,1,.24-1.1c0-.12.07-.25.11-.38-.3.07-.57.11-.84.19-.07,0-.11.16-.16.25a4.38,4.38,0,0,1-1.14,1.68,2.51,2.51,0,0,1-1.34.62,1.17,1.17,0,0,1-1.38-1.46,1,1,0,0,0,0-.4l-.24.23c-.46.41-.91.86-1.4,1.23a1.8,1.8,0,0,1-1.59.33,1.09,1.09,0,0,1-.83-1.27c-.06.08-.12.16-.19.24a3.82,3.82,0,0,1-1.38,1,1.24,1.24,0,0,1-1.07,0,.58.58,0,0,1-.36-.75,6.67,6.67,0,0,1,.46-1.12c.17-.35.4-.67.58-1s0-.45-.25-.38a1.81,1.81,0,0,0-.81.38,4.42,4.42,0,0,0-.73,1c-.35.6-.67,1.21-1,1.83a.34.34,0,0,1-.35.22c-.35,0-.71,0-1.12,0l.17-.33,1.43-2.53a.49.49,0,0,0,.09-.19,2.42,2.42,0,0,0,0-.37,1.3,1.3,0,0,0-.33.08.75.75,0,0,0-.2.22c-.49.65-1,1.31-1.48,2a6.66,6.66,0,0,1-.72.75,2.06,2.06,0,0,1-.51.34.87.87,0,0,1-1.34-.59c-.22.14-.44.29-.67.41a1.7,1.7,0,0,1-1.15.2.89.89,0,0,1-.74-.85,2.54,2.54,0,0,1,.41-1.45l.19-.33c-.53.18-1,.34-1.53.52a.48.48,0,0,0-.2.21c-.33.57-.66,1.15-1,1.73a.34.34,0,0,1-.36.2c-.42,0-.83,0-1.3,0l1-1.89-2-.45-.24.37A4.69,4.69,0,0,1,53.51,136a3.88,3.88,0,0,1-2.67-.56,1.19,1.19,0,0,0-1.41,0,3.42,3.42,0,0,1-1.48.4c-.85.07-1.16-.45-.76-1.21.29-.54.64-1,1-1.56.12-.2.29-.42.09-.64a.48.48,0,0,0-.69.05,5.42,5.42,0,0,0-.9.95c-.48.69-.92,1.42-1.36,2.14a.38.38,0,0,1-.38.22c-.3,0-.6,0-1,0l.47-.81,1.25-2.1a.65.65,0,0,0,.11-.21,3.3,3.3,0,0,0,0-.43,1.27,1.27,0,0,0-.4.1,1.58,1.58,0,0,0-.36.37l-1.7,2.24a2,2,0,0,1-1.08.81.85.85,0,0,1-.91-.17.76.76,0,0,1-.08-.92c.29-.58.62-1.15.91-1.73.08-.16.16-.45.07-.55s-.4,0-.57.08A4.27,4.27,0,0,0,40.26,134c-.29.5-.59,1-.87,1.51a.39.39,0,0,1-.41.23c-.31,0-.63,0-1,0l2.26-3.9,0-.06a2.69,2.69,0,0,1-1.74.85l-.13.44a3.92,3.92,0,0,1-1.75,2.31,2.44,2.44,0,0,1-.91.32,1.17,1.17,0,0,1-1.37-1.49,3.54,3.54,0,0,1,.71-1.47l.37-.5h-.09a3.44,3.44,0,0,0-1.29.32c-.31.24-.43.74-.63,1.13-1.2,2.38-2.35,4.78-3.59,7.13a14,14,0,0,1-4.6,5.12,7.3,7.3,0,0,1-3.32,1.31,5,5,0,0,1-1.28,0,1.55,1.55,0,0,1-1.37-1.32Zm12.83-12-.26.1a23.65,23.65,0,0,0-7.81,5.42,20.26,20.26,0,0,0-3.64,4.85,8,8,0,0,0-.61,1.63,1.22,1.22,0,0,0,1,1.68,2.31,2.31,0,0,0,.49,0,4.28,4.28,0,0,0,2.53-1.11A14.15,14.15,0,0,0,27,141.93c1.48-2.47,2.89-5,4.32-7.5C31.57,134,31.76,133.65,32,133.18Zm23.68-.91,2.93-5.12a2.7,2.7,0,0,0-1.48-.65c-.06,0-.17.07-.19.14a16.51,16.51,0,0,1-2.36,4.13.31.31,0,0,0,0,.27A3.36,3.36,0,0,0,55.69,132.27Zm-5.15,2.5a3,3,0,0,0,3.17,0,6.38,6.38,0,0,0,1.74-2.07l-1.3-1.37A20.43,20.43,0,0,1,50.54,134.76Zm6.56-1.64c.62.14,1.18.27,1.75.38a.39.39,0,0,0,.3-.17,5.41,5.41,0,0,0,.89-3.12,4.3,4.3,0,0,0-.51-2ZM92.2,139a1.58,1.58,0,0,0,.09.16,12.24,12.24,0,0,0,2.58,2.55,3,3,0,0,0,.78.42,2.43,2.43,0,0,0,.83.17.66.66,0,0,0,.64-1,2.32,2.32,0,0,0-.64-.8A8.75,8.75,0,0,0,92.2,139Zm-33.33-12.3,2-2.47c-1.1.39-2.19.57-3.13-.35L57.22,126Zm21.85,5.8c.05-.49-.16-.62-.56-.39l-.18.12a4.73,4.73,0,0,0-1.28,1.57,2,2,0,0,0-.2.82.89.89,0,0,0,.22.62c.2.19.47,0,.67-.1a4.14,4.14,0,0,0,1.54-2,.61.61,0,0,0,0-.36A2,2,0,0,0,80.71,132.52Zm-45.35,2.24c0,.54.31.73.79.49a2,2,0,0,0,.33-.21,4.74,4.74,0,0,0,1.32-1.82c.09-.19.17-.4-.08-.57,0,0,0-.15,0-.23,0-.4-.22-.52-.58-.33a1.47,1.47,0,0,0-.32.23,5.28,5.28,0,0,0-1.27,1.85A4.21,4.21,0,0,0,35.37,134.76Zm21.24-8.31a2.3,2.3,0,0,0-2,1.08,3.27,3.27,0,0,0-.27,3A14.32,14.32,0,0,0,56.61,126.45Zm8.91,5.9c0-.38-.14-.56-.41-.49a1.66,1.66,0,0,0-.76.39,7.18,7.18,0,0,0-1.35,2,1.39,1.39,0,0,0-.13.53c0,.38.27.58.6.4a2,2,0,0,0,.66-.53c.43-.59.82-1.21,1.2-1.84A2.15,2.15,0,0,0,65.51,132.35ZM87.84,134c.25,0,.44-.07.63-.11a2.78,2.78,0,0,0,1.71-.93c.16-.22.4-.49.17-.76s-.53-.12-.79,0A3.71,3.71,0,0,0,87.84,134ZM44,127.58l.07.06a11.68,11.68,0,0,0,2.45-2.24c.15-.18.39-.41.16-.63s-.48,0-.64.18c-.51.55-1,1.13-1.47,1.72A9.54,9.54,0,0,0,44,127.58Zm47.71-.2A9.05,9.05,0,0,0,94,125.56a1.72,1.72,0,0,0,.27-.4,1.22,1.22,0,0,0,0-.36c-.13,0-.28,0-.37,0a3.85,3.85,0,0,0-.63.47A7.55,7.55,0,0,0,91.74,127.38Z"/></svg>