<svg xmlns="http://www.w3.org/2000/svg" width="172" height="30" viewBox="0 0 172 30" fill="none"><path d="M73.6623 0.627898H77.017L73.0333 21.6279C72.614 23.7209 71.2861 24.6279 69.469 24.6279C67.7218 24.6279 66.2541 23.7907 65.8348 21.1395L63.0393 2.99999C62.9694 2.65115 62.7597 2.51162 62.5501 2.51162C62.2705 2.51162 62.0608 2.72092 62.0608 2.99999L59.1954 21.6279C58.846 23.7209 57.3783 24.5581 55.701 24.5581C54.0935 24.5581 52.4861 23.5814 51.9969 21.1395L47.9434 0.558131H51.3679L55.1419 21.7674C55.2118 22.1163 55.3515 22.2558 55.6311 22.2558C55.9106 22.2558 56.1203 22.1163 56.1902 21.6977L59.0556 3.34883C59.475 0.906968 60.9426 0.139526 62.4802 0.139526C64.0177 0.139526 65.695 0.906968 66.0445 3.34883L68.9099 21.6977C68.9798 22.1163 69.1895 22.2558 69.469 22.2558C69.7486 22.2558 69.9582 22.0465 69.9582 21.7674L73.6623 0.627898Z" fill="#112B6D"></path><path d="M88.0598 6.34886C92.323 6.34886 94.21 9.4884 94.21 13.6047V24.2093H91.2746V14.3023C91.2746 10.8837 90.2263 8.93025 87.4308 8.93025C84.8449 8.93025 82.8181 10.8837 82.8181 14.6512V24.2093H79.8828V0.62793H82.8181V9.41863C83.5869 7.67444 85.4739 6.34886 88.0598 6.34886Z" fill="#112B6D"></path><path fill-rule="evenodd" clip-rule="evenodd" d="M100.359 4.3954C99.1712 4.3954 98.2627 3.55819 98.2627 2.30237C98.2627 1.04656 99.1712 0.209351 100.359 0.209351C101.547 0.209351 102.456 1.04656 102.456 2.30237C102.456 3.48842 101.617 4.3954 100.359 4.3954ZM102.805 21.8373C102.386 21.8373 102.176 21.6977 102.176 21.2094H102.107V9.97679C102.107 7.814 101.058 6.76749 98.6121 6.76749H96.166V9.20935H98.6121C99.0314 9.20935 99.2411 9.34889 99.2411 9.83726V21C99.2411 23.1628 100.289 24.2094 102.736 24.2094H105.321V21.8373H102.805Z" fill="#112B6D"></path><path d="M113.917 8.93027C111.541 8.93027 110.213 10.1163 110.213 11.3721C110.213 12.4884 110.912 13.2559 112.659 13.5349L116.084 14.0931C118.74 14.5814 121.395 15.7675 121.395 19.0466C121.395 22.4652 118.25 24.5582 114.127 24.5582C109.654 24.5582 106.859 21.6977 106.719 18.4884H109.864C110.213 20.721 111.751 22.0466 114.337 22.0466C116.922 22.0466 118.39 20.7907 118.39 19.1163C118.39 17.721 117.412 17.0233 115.455 16.6745L112.1 16.1163C109.235 15.6279 107.278 14.0233 107.278 11.4419C107.278 8.09306 110.423 6.34888 114.197 6.34888C117.761 6.34888 120.766 8.4419 121.186 11.7907H118.111C117.691 9.97678 116.224 8.93027 113.917 8.93027Z" fill="#112B6D"></path><path fill-rule="evenodd" clip-rule="evenodd" d="M132.998 6.41858C130.203 6.41858 128.316 7.60463 127.267 9.27904V6.69765H124.332V30H127.267V21.8372C128.316 23.5116 130.203 24.6976 132.998 24.6976C136.982 24.6976 140.476 21.3488 140.476 15.5581C140.476 9.76742 136.982 6.41858 132.998 6.41858ZM137.331 15.4883C137.331 19.6744 135.235 21.907 132.229 21.907C129.574 21.907 127.128 20.1628 127.128 15.4883C127.128 10.8837 129.574 9.06974 132.229 9.06974C135.235 9.06974 137.331 11.3023 137.331 15.4883Z" fill="#112B6D"></path><path fill-rule="evenodd" clip-rule="evenodd" d="M155.781 19.1861C155.152 20.8605 153.684 22.0465 151.238 22.0465C148.652 22.0465 146.136 20.3024 145.926 16.814H155.85C158.017 16.814 159.345 16.0465 159.345 14.0233C159.345 10.1861 156.06 6.4884 151.238 6.4884C146.136 6.4884 142.781 10.0465 142.781 15.5582C142.781 20.721 145.786 24.6977 151.168 24.6977C155.361 24.6977 157.947 22.1861 158.925 19.1861H155.781ZM155.711 14.3024H145.996C146.206 11.0931 148.023 8.93026 151.238 8.93026C154.453 8.93026 156.41 11.721 156.41 13.7442C156.41 14.1628 156.13 14.3024 155.711 14.3024Z" fill="#112B6D"></path><path d="M170.738 9.34881C166.684 9.34881 165.217 11.3023 165.217 14.5116V24.2093H162.281V6.69765H165.147V9.76742C165.846 7.95346 167.523 6.41858 170.318 6.41858C170.668 6.41858 170.808 6.41858 171.227 6.41858V9.27904H170.738V9.34881Z" fill="#112B6D"></path><ellipse cx="10.2046" cy="21.9767" rx="2.65576" ry="2.65116" fill="#112B6D"></ellipse><ellipse cx="23.9019" cy="21.9767" rx="2.65576" ry="2.65116" fill="#112B6D"></ellipse><ellipse cx="3.28467" cy="2.79069" rx="2.65576" ry="2.65116" fill="#112B6D"></ellipse><ellipse cx="17.0522" cy="2.79069" rx="2.65576" ry="2.65116" fill="#112B6D"></ellipse><ellipse cx="30.8198" cy="2.79069" rx="2.65576" ry="2.65116" fill="#112B6D"></ellipse></svg>